<?xml version="1.0" encoding="utf-8"?>
<!-- Generator: Adobe Illustrator 26.3.1, SVG Export Plug-In . SVG Version: 6.00 Build 0)  -->
<svg version="1.1" id="Capa_1" xmlns="http://www.w3.org/2000/svg" xmlns:xlink="http://www.w3.org/1999/xlink" x="0px" y="0px"
	 viewBox="0 0 41 20" style="enable-background:new 0 0 41 20;" xml:space="preserve">
<style type="text/css">
	.st0{clip-path:url(#SVGID_00000085944005355548147450000010285190033946498716_);}
	.st1{fill:#000A33;}
</style>
<g>
	<defs>
		<rect id="SVGID_1_" width="41" height="20"/>
	</defs>
	<clipPath id="SVGID_00000176012440443151655790000003858157066412295070_">
		<use xlink:href="#SVGID_1_"  style="overflow:visible;"/>
	</clipPath>
	<g id="Grupo_14773" style="clip-path:url(#SVGID_00000176012440443151655790000003858157066412295070_);">
		<path id="Trazado_4717" class="st1" d="M0.5,11.2L0.5,11.2l8.4,8.3c0.6,0.6,1.6,0.6,2.3,0c0.6-0.6,0.6-1.6,0-2.3l-5.6-5.6h33.9
			c0.9,0,1.6-0.7,1.6-1.6s-0.7-1.6-1.6-1.6c0,0,0,0,0,0H5.5l5.6-5.6c0.6-0.6,0.6-1.6,0-2.3C10.5,0,9.5,0,8.8,0.6L0.5,8.9l0,0
			C-0.2,9.6-0.2,10.6,0.5,11.2C0.5,11.2,0.5,11.2,0.5,11.2"/>
	</g>
</g>
</svg>
