<?xml version="1.0" encoding="utf-8"?>
<!-- Generator: Adobe Illustrator 26.3.1, SVG Export Plug-In . SVG Version: 6.00 Build 0)  -->
<svg version="1.1" id="Layer_1" xmlns="http://www.w3.org/2000/svg" xmlns:xlink="http://www.w3.org/1999/xlink" x="0px" y="0px"
	 viewBox="0 0 50 50" style="enable-background:new 0 0 50 50;" xml:space="preserve">
<style type="text/css">
	.st0{fill:#7E8398;}
</style>
<g>
	<path class="st0" d="M25,5.3c6.4,0,7.2,0,9.7,0.1c1.5,0,3,0.3,4.4,0.8c2.1,0.8,3.7,2.5,4.5,4.5c0.5,1.4,0.8,2.9,0.8,4.4
		c0.1,2.5,0.1,3.3,0.1,9.7s0,7.2-0.1,9.7c0,1.5-0.3,3-0.8,4.4c-0.8,2.1-2.5,3.7-4.5,4.5c-1.4,0.5-2.9,0.8-4.4,0.8
		c-2.5,0.1-3.3,0.1-9.7,0.1s-7.2,0-9.7-0.1c-1.5,0-3-0.3-4.4-0.8c-2.1-0.8-3.7-2.5-4.5-4.5c-0.5-1.4-0.8-2.9-0.8-4.4
		c-0.1-2.5-0.1-3.3-0.1-9.7s0-7.2,0.1-9.7c0-1.5,0.3-3,0.8-4.4C7.2,8.6,8.9,7,10.9,6.2c1.4-0.5,2.9-0.8,4.4-0.8
		C17.8,5.3,18.6,5.3,25,5.3 M25,1c-6.5,0-7.3,0-9.9,0.1c-2,0-4,0.4-5.8,1.1c-3.2,1.2-5.8,3.8-7,7C1.6,11.1,1.2,13,1.2,15
		C1,17.7,1,18.5,1,25s0,7.3,0.1,9.9c0,2,0.4,4,1.1,5.8c1.2,3.2,3.8,5.8,7,7c1.9,0.7,3.8,1.1,5.8,1.1C17.7,49,18.5,49,25,49
		s7.3,0,9.9-0.1c2,0,4-0.4,5.8-1.1c3.2-1.2,5.8-3.8,7-7c0.7-1.9,1.1-3.8,1.1-5.8C49,32.3,49,31.5,49,25s0-7.3-0.1-9.9
		c0-2-0.4-4-1.1-5.8c-1.2-3.2-3.8-5.8-7-7C38.9,1.6,37,1.2,35,1.2C32.3,1,31.5,1,25,1z"/>
	<path class="st0" d="M25,12.6c-6.8,0-12.3,5.5-12.3,12.3S18.2,37.3,25,37.3S37.3,31.8,37.3,25l0,0C37.3,18.2,31.8,12.6,25,12.6z
		 M25,32.9c-4.4,0-8-3.6-8-8s3.6-8,8-8s8,3.6,8,8l0,0C33,29.4,29.4,32.9,25,32.9z"/>
	<circle class="st0" cx="37.8" cy="12.2" r="2.9"/>
</g>
</svg>
