<?xml version="1.0" encoding="utf-8"?>
<!-- Generator: Adobe Illustrator 26.3.1, SVG Export Plug-In . SVG Version: 6.00 Build 0)  -->
<svg version="1.1" id="Layer_1" xmlns="http://www.w3.org/2000/svg" xmlns:xlink="http://www.w3.org/1999/xlink" x="0px" y="0px"
	 viewBox="0 0 50 50" style="enable-background:new 0 0 50 50;" xml:space="preserve">
<style type="text/css">
	.st0{fill:#7E8398;}
</style>
<g>
	<path class="st0" d="M1.8,17h9.9v31.8H1.8V17z M6.8,1.2c3.2,0,5.8,2.6,5.8,5.7c0,3.2-2.6,5.7-5.8,5.7S1,10.1,1,6.9
		C1,3.8,3.6,1.2,6.8,1.2"/>
	<path class="st0" d="M18,17h9.5v4.3h0.2c1.9-3.3,5.6-5.3,9.4-5.1c10.1,0,11.9,6.6,11.9,15.1v17.4h-9.9V33.3c0-3.7-0.1-8.4-5.2-8.4
		s-6,4-6,8.2v15.7H18V17z"/>
</g>
</svg>
